{
    "asset" : {
        "generator" : "Khronos glTF Blender I/O v1.8.19",
        "version" : "2.0"
    },
    "scene" : 0,
    "scenes" : [
        {
            "name" : "Scene",
            "nodes" : [
                0
            ]
        }
    ],
    "nodes" : [
        {
            "mesh" : 0,
            "name" : "\u98de\u673a05"
        }
    ],
    "materials" : [
        {
            "doubleSided" : true,
            "name" : "ArchM73_07_Diff",
            "pbrMetallicRoughness" : {
                "baseColorTexture" : {
                    "index" : 0
                },
                "metallicFactor" : 0,
                "roughnessFactor" : 0.5
            }
        },
        {
            "doubleSided" : true,
            "name" : "ArchM73_07_a2",
            "pbrMetallicRoughness" : {
                "baseColorFactor" : [
                    0.6823530197143555,
                    0.6823530197143555,
                    0.6823530197143555,
                    1
                ],
                "metallicFactor" : 0,
                "roughnessFactor" : 0.5
            }
        },
        {
            "doubleSided" : true,
            "name" : "ArchM73_07_a8",
            "pbrMetallicRoughness" : {
                "baseColorFactor" : [
                    0.22352899610996246,
                    0.22352899610996246,
                    0.22352899610996246,
                    1
                ],
                "metallicFactor" : 0,
                "roughnessFactor" : 0.5
            }
        },
        {
            "doubleSided" : true,
            "name" : "ArchM73_07_a3",
            "pbrMetallicRoughness" : {
                "baseColorFactor" : [
                    0.5,
                    0.5,
                    0.5,
                    1
                ],
                "metallicFactor" : 0,
                "roughnessFactor" : 0.5
            }
        },
        {
            "doubleSided" : true,
            "name" : "ArchM73_07_a4",
            "pbrMetallicRoughness" : {
                "baseColorFactor" : [
                    0.274509996175766,
                    0.274509996175766,
                    0.274509996175766,
                    1
                ],
                "metallicFactor" : 0,
                "roughnessFactor" : 0.5
            }
        },
        {
            "doubleSided" : true,
            "name" : "ArchM73_07_a6",
            "pbrMetallicRoughness" : {
                "baseColorFactor" : [
                    0.4392159879207611,
                    0.48627498745918274,
                    0.48627498745918274,
                    1
                ],
                "metallicFactor" : 0,
                "roughnessFactor" : 0.5
            }
        },
        {
            "doubleSided" : true,
            "name" : "ArchM73_07_a5",
            "pbrMetallicRoughness" : {
                "baseColorFactor" : [
                    0.1450980007648468,
                    0.1450980007648468,
                    0.19215700030326843,
                    1
                ],
                "metallicFactor" : 0,
                "roughnessFactor" : 0.5
            }
        },
        {
            "doubleSided" : true,
            "name" : "ArchM73_07_a7",
            "pbrMetallicRoughness" : {
                "baseColorFactor" : [
                    0.11372499912977219,
                    0.11372499912977219,
                    0.11372499912977219,
                    1
                ],
                "metallicFactor" : 0,
                "roughnessFactor" : 0.5
            }
        }
    ],
    "meshes" : [
        {
            "name" : "Obj3d66-596845-4-680",
            "primitives" : [
                {
                    "attributes" : {
                        "POSITION" : 0,
                        "NORMAL" : 1,
                        "TEXCOORD_0" : 2
                    },
                    "indices" : 3,
                    "material" : 0
                },
                {
                    "attributes" : {
                        "POSITION" : 4,
                        "NORMAL" : 5,
                        "TEXCOORD_0" : 6
                    },
                    "indices" : 7,
                    "material" : 1
                },
                {
                    "attributes" : {
                        "POSITION" : 8,
                        "NORMAL" : 9,
                        "TEXCOORD_0" : 10
                    },
                    "indices" : 11,
                    "material" : 2
                },
                {
                    "attributes" : {
                        "POSITION" : 12,
                        "NORMAL" : 13,
                        "TEXCOORD_0" : 14
                    },
                    "indices" : 15,
                    "material" : 3
                },
                {
                    "attributes" : {
                        "POSITION" : 16,
                        "NORMAL" : 17,
                        "TEXCOORD_0" : 18
                    },
                    "indices" : 19,
                    "material" : 4
                },
                {
                    "attributes" : {
                        "POSITION" : 20,
                        "NORMAL" : 21,
                        "TEXCOORD_0" : 22
                    },
                    "indices" : 23,
                    "material" : 5
                },
                {
                    "attributes" : {
                        "POSITION" : 24,
                        "NORMAL" : 25,
                        "TEXCOORD_0" : 26
                    },
                    "indices" : 27,
                    "material" : 6
                },
                {
                    "attributes" : {
                        "POSITION" : 28,
                        "NORMAL" : 29,
                        "TEXCOORD_0" : 30
                    },
                    "indices" : 31,
                    "material" : 7
                }
            ]
        }
    ],
    "textures" : [
        {
            "sampler" : 0,
            "source" : 0
        }
    ],
    "images" : [
        {
            "bufferView" : 4,
            "mimeType" : "image/png",
            "name" : "3d66Model-596845-files-2"
        }
    ],
    "accessors" : [
        {
            "bufferView" : 0,
            "componentType" : 5126,
            "count" : 19072,
            "max" : [
                5.082920074462891,
                2.838892936706543,
                5.0899763107299805
            ],
            "min" : [
                -5.082920074462891,
                0.4084930121898651,
                -5.0899763107299805
            ],
            "type" : "VEC3"
        },
        {
            "bufferView" : 1,
            "componentType" : 5126,
            "count" : 19072,
            "type" : "VEC3"
        },
        {
            "bufferView" : 2,
            "componentType" : 5126,
            "count" : 19072,
            "type" : "VEC2"
        },
        {
            "bufferView" : 3,
            "componentType" : 5123,
            "count" : 81606,
            "type" : "SCALAR"
        },
        {
            "bufferView" : 5,
            "componentType" : 5126,
            "count" : 3844,
            "max" : [
                3.3395228385925293,
                2.129405975341797,
                3.481748104095459
            ],
            "min" : [
                -3.5223281383514404,
                0.6447550058364868,
                -3.3341784477233887
            ],
            "type" : "VEC3"
        },
        {
            "bufferView" : 6,
            "componentType" : 5126,
            "count" : 3844,
            "type" : "VEC3"
        },
        {
            "bufferView" : 7,
            "componentType" : 5126,
            "count" : 3844,
            "type" : "VEC2"
        },
        {
            "bufferView" : 8,
            "componentType" : 5123,
            "count" : 7560,
            "type" : "SCALAR"
        },
        {
            "bufferView" : 9,
            "componentType" : 5126,
            "count" : 802,
            "max" : [
                1.542688012123108,
                1.6083869934082031,
                1.615950345993042
            ],
            "min" : [
                -1.6499652862548828,
                0.5565170049667358,
                -1.5987995862960815
            ],
            "type" : "VEC3"
        },
        {
            "bufferView" : 10,
            "componentType" : 5126,
            "count" : 802,
            "type" : "VEC3"
        },
        {
            "bufferView" : 11,
            "componentType" : 5126,
            "count" : 802,
            "type" : "VEC2"
        },
        {
            "bufferView" : 12,
            "componentType" : 5123,
            "count" : 948,
            "type" : "SCALAR"
        },
        {
            "bufferView" : 13,
            "componentType" : 5126,
            "count" : 1405,
            "max" : [
                1.174699306488037,
                2.203187942504883,
                2.0843071937561035
            ],
            "min" : [
                -2.145314931869507,
                0.8509600162506104,
                -1.202455997467041
            ],
            "type" : "VEC3"
        },
        {
            "bufferView" : 14,
            "componentType" : 5126,
            "count" : 1405,
            "type" : "VEC3"
        },
        {
            "bufferView" : 15,
            "componentType" : 5126,
            "count" : 1405,
            "type" : "VEC2"
        },
        {
            "bufferView" : 16,
            "componentType" : 5123,
            "count" : 5460,
            "type" : "SCALAR"
        },
        {
            "bufferView" : 17,
            "componentType" : 5126,
            "count" : 1080,
            "max" : [
                -1.9907915592193604,
                1.2762550115585327,
                2.0512096881866455
            ],
            "min" : [
                -2.1121225357055664,
                0.8825560212135315,
                1.9285552501678467
            ],
            "type" : "VEC3"
        },
        {
            "bufferView" : 18,
            "componentType" : 5126,
            "count" : 1080,
            "type" : "VEC3"
        },
        {
            "bufferView" : 19,
            "componentType" : 5126,
            "count" : 1080,
            "type" : "VEC2"
        },
        {
            "bufferView" : 20,
            "componentType" : 5123,
            "count" : 1440,
            "type" : "SCALAR"
        },
        {
            "bufferView" : 21,
            "componentType" : 5126,
            "count" : 5647,
            "max" : [
                1.268256425857544,
                1.1596280336380005,
                2.1296446323394775
            ],
            "min" : [
                -2.1912271976470947,
                0.09307300299406052,
                -1.2724189758300781
            ],
            "type" : "VEC3"
        },
        {
            "bufferView" : 22,
            "componentType" : 5126,
            "count" : 5647,
            "type" : "VEC3"
        },
        {
            "bufferView" : 23,
            "componentType" : 5126,
            "count" : 5647,
            "type" : "VEC2"
        },
        {
            "bufferView" : 24,
            "componentType" : 5123,
            "count" : 15510,
            "type" : "SCALAR"
        },
        {
            "bufferView" : 25,
            "componentType" : 5126,
            "count" : 1293,
            "max" : [
                1.3288512229919434,
                2.2035388946533203,
                2.1641616821289062
            ],
            "min" : [
                -2.2277944087982178,
                0,
                -1.3320960998535156
            ],
            "type" : "VEC3"
        },
        {
            "bufferView" : 26,
            "componentType" : 5126,
            "count" : 1293,
            "type" : "VEC3"
        },
        {
            "bufferView" : 27,
            "componentType" : 5126,
            "count" : 1293,
            "type" : "VEC2"
        },
        {
            "bufferView" : 28,
            "componentType" : 5123,
            "count" : 7200,
            "type" : "SCALAR"
        },
        {
            "bufferView" : 29,
            "componentType" : 5126,
            "count" : 518,
            "max" : [
                1.2399958372116089,
                2.0519590377807617,
                2.090439796447754
            ],
            "min" : [
                -2.152864694595337,
                0.12136899679899216,
                -1.2446727752685547
            ],
            "type" : "VEC3"
        },
        {
            "bufferView" : 30,
            "componentType" : 5126,
            "count" : 518,
            "type" : "VEC3"
        },
        {
            "bufferView" : 31,
            "componentType" : 5126,
            "count" : 518,
            "type" : "VEC2"
        },
        {
            "bufferView" : 32,
            "componentType" : 5123,
            "count" : 1236,
            "type" : "SCALAR"
        }
    ],
    "bufferViews" : [
        {
            "buffer" : 0,
            "byteLength" : 228864,
            "byteOffset" : 0
        },
        {
            "buffer" : 0,
            "byteLength" : 228864,
            "byteOffset" : 228864
        },
        {
            "buffer" : 0,
            "byteLength" : 152576,
            "byteOffset" : 457728
        },
        {
            "buffer" : 0,
            "byteLength" : 163212,
            "byteOffset" : 610304
        },
        {
            "buffer" : 0,
            "byteLength" : 76626,
            "byteOffset" : 773516
        },
        {
            "buffer" : 0,
            "byteLength" : 46128,
            "byteOffset" : 850144
        },
        {
            "buffer" : 0,
            "byteLength" : 46128,
            "byteOffset" : 896272
        },
        {
            "buffer" : 0,
            "byteLength" : 30752,
            "byteOffset" : 942400
        },
        {
            "buffer" : 0,
            "byteLength" : 15120,
            "byteOffset" : 973152
        },
        {
            "buffer" : 0,
            "byteLength" : 9624,
            "byteOffset" : 988272
        },
        {
            "buffer" : 0,
            "byteLength" : 9624,
            "byteOffset" : 997896
        },
        {
            "buffer" : 0,
            "byteLength" : 6416,
            "byteOffset" : 1007520
        },
        {
            "buffer" : 0,
            "byteLength" : 1896,
            "byteOffset" : 1013936
        },
        {
            "buffer" : 0,
            "byteLength" : 16860,
            "byteOffset" : 1015832
        },
        {
            "buffer" : 0,
            "byteLength" : 16860,
            "byteOffset" : 1032692
        },
        {
            "buffer" : 0,
            "byteLength" : 11240,
            "byteOffset" : 1049552
        },
        {
            "buffer" : 0,
            "byteLength" : 10920,
            "byteOffset" : 1060792
        },
        {
            "buffer" : 0,
            "byteLength" : 12960,
            "byteOffset" : 1071712
        },
        {
            "buffer" : 0,
            "byteLength" : 12960,
            "byteOffset" : 1084672
        },
        {
            "buffer" : 0,
            "byteLength" : 8640,
            "byteOffset" : 1097632
        },
        {
            "buffer" : 0,
            "byteLength" : 2880,
            "byteOffset" : 1106272
        },
        {
            "buffer" : 0,
            "byteLength" : 67764,
            "byteOffset" : 1109152
        },
        {
            "buffer" : 0,
            "byteLength" : 67764,
            "byteOffset" : 1176916
        },
        {
            "buffer" : 0,
            "byteLength" : 45176,
            "byteOffset" : 1244680
        },
        {
            "buffer" : 0,
            "byteLength" : 31020,
            "byteOffset" : 1289856
        },
        {
            "buffer" : 0,
            "byteLength" : 15516,
            "byteOffset" : 1320876
        },
        {
            "buffer" : 0,
            "byteLength" : 15516,
            "byteOffset" : 1336392
        },
        {
            "buffer" : 0,
            "byteLength" : 10344,
            "byteOffset" : 1351908
        },
        {
            "buffer" : 0,
            "byteLength" : 14400,
            "byteOffset" : 1362252
        },
        {
            "buffer" : 0,
            "byteLength" : 6216,
            "byteOffset" : 1376652
        },
        {
            "buffer" : 0,
            "byteLength" : 6216,
            "byteOffset" : 1382868
        },
        {
            "buffer" : 0,
            "byteLength" : 4144,
            "byteOffset" : 1389084
        },
        {
            "buffer" : 0,
            "byteLength" : 2472,
            "byteOffset" : 1393228
        }
    ],
    "samplers" : [
        {
            "magFilter" : 9729,
            "minFilter" : 9987
        }
    ],
    "buffers" : [
        {
            "byteLength" : 1395700,
            "uri" : "data:application/octet-stream;base64,"
        }
    ]
}
